<svg xmlns="http://www.w3.org/2000/svg" width="32" height="32" fill="#e6eaee" xmlns:v="https://vecta.io/nano"><path d="M16 18.893c-2.84 0-5.16-2.307-5.16-5.16S13.16 8.587 16 8.587s5.16 2.307 5.16 5.16-2.32 5.147-5.16 5.147zm0-8.307a3.17 3.17 0 0 0-3.16 3.16 3.16 3.16 0 1 0 6.32 0 3.17 3.17 0 0 0-3.16-3.16zm0 19.761a7.96 7.96 0 0 1-5.507-2.227c-3.933-3.787-8.28-9.827-6.64-17.013 1.48-6.52 7.173-9.44 12.147-9.44 4.987 0 10.68 2.92 12.16 9.453 1.627 7.187-2.72 13.213-6.653 17A7.96 7.96 0 0 1 16 30.347zm0-26.68c-3.88 0-8.867 2.067-10.187 7.88-1.44 6.28 2.507 11.693 6.08 15.12a5.9 5.9 0 0 0 8.227 0c3.56-3.427 7.507-8.84 6.093-15.12C24.88 5.733 19.88 3.667 16 3.667z"/></svg>