<svg xmlns="http://www.w3.org/2000/svg" width="60" height="528" fill="none" xmlns:v="https://vecta.io/nano"><g clip-path="url(#A)" fill="#333"><path d="M38.796 477.9c0 5.419-4.205 9.801-9.418 9.801s-9.418-4.382-9.418-9.801 9.418-9.8 9.418-9.8 9.418 4.382 9.418 9.8zm-4.768 29.284v-2.22h-9.27v2.22a6.12 6.12 0 0 1-1.51-4.056c0-1.066.592-2.073 1.451-2.932 1.836-1.924 4.738-3.227 4.738-3.227s2.902 1.303 4.738 3.227c.829.889 1.451 1.866 1.451 2.932a6.59 6.59 0 0 1-1.599 4.056z"/><path d="M39.743 490.958a10.38 10.38 0 0 1-10.365 10.364 10.38 10.38 0 0 1-10.365-10.364 10.38 10.38 0 0 1 10.365-10.363 10.38 10.38 0 0 1 10.365 10.363z"/><path d="M21.264 486.576l-2.665-4.056-2.636-4.087-5.212-8.231-.355-.533.119-.533 2.043-9.771 1.185-4.856 1.451-4.797-.148 5.034-.415 4.974-1.125 9.919-.237-1.066 5.568 7.965 2.754 3.998 2.724 4.027-3.05 2.013z"/><path d="M21.797 490.484l-4.383-2.131-4.353-2.191-4.324-2.192-4.324-2.25-.592-.326-.118-.562-1.066-4.738-1.037-4.737L0 461.763c1.303 2.991 2.399 6.04 3.406 9.12l1.481 4.619 1.451 4.619-.74-.888 4.472 1.924 4.442 1.955 4.442 1.984 4.413 2.043-1.57 3.345z"/><path d="M22.715 493.83l-3.198.918-3.198.889-6.427 1.687 1.007-1.036-1.718 5.863-1.747 5.833-1.895 5.803-2.162 5.745.888-6.07 1.155-5.982 1.273-5.951 1.333-5.952.178-.74.829-.296 6.308-2.132 3.169-1.036 3.169-.977 1.037 3.434zm2.547 2.073l-2.606 5.241-2.695 5.211.089-1.125 1.362 5.626 1.303 5.655 1.214 5.685.859 5.774-2.28-5.389-1.955-5.477-1.836-5.508-1.777-5.537-.178-.533.267-.592 2.399-5.359 2.488-5.3 3.347 1.628zm10.424-11.34l2.725-4.027 2.754-3.998 5.568-7.965-.237 1.066-1.125-9.919-.415-4.974-.148-5.034 1.451 4.797 1.185 4.856 2.043 9.771.118.533-.326.533-5.212 8.231-2.636 4.087-2.665 4.056-3.08-2.013z"/><path d="M36.634 487.168l4.413-2.043 4.442-1.984 4.442-1.954 4.472-1.925-.74.889 1.451-4.619 1.481-4.62 3.435-9.119-1.599 9.593-1.036 4.738-1.066 4.737-.119.563-.592.326-4.324 2.25-4.324 2.191-4.353 2.191-4.383 2.132-1.599-3.346z"/><path d="M38.352 490.336l3.169.978 3.169 1.036 6.308 2.132.829.296.178.74 1.333 5.952 1.273 5.951 1.155 5.981.888 6.07-2.162-5.744-1.895-5.803-1.747-5.833-1.718-5.863 1.007 1.036-6.426-1.688-3.198-.888-3.198-.918 1.037-3.435zm-.297 3.998l2.488 5.3 2.399 5.359.267.592-.178.533-1.777 5.537-1.836 5.508-1.955 5.478-2.28 5.389c.178-1.955.503-3.879.859-5.774l1.214-5.685 1.303-5.656 1.362-5.626.089 1.126-2.695-5.212-2.606-5.241 3.346-1.628zM30.267 0H28.46v474.347h1.806V0z"/></g><defs><clipPath id="A"><path fill="#fff" d="M0 0h60v528H0z"/></clipPath></defs></svg>