<svg xmlns="http://www.w3.org/2000/svg" width="32" height="32" fill="#e6eaee" xmlns:v="https://vecta.io/nano"><path d="M20 30.333h-8C4.76 30.333 1.667 27.24 1.667 20v-8C1.667 4.76 4.76 1.667 12 1.667h8c7.24 0 10.333 3.093 10.333 10.333v8c0 7.24-3.093 10.333-10.333 10.333zM12 3.667c-6.147 0-8.333 2.187-8.333 8.333v8c0 6.147 2.187 8.333 8.333 8.333h8c6.147 0 8.333-2.187 8.333-8.333v-8c0-6.147-2.187-8.333-8.333-8.333h-8zm2.107 17.106a1 1 0 0 1-.707-.293l-3.773-3.773c-.387-.387-.387-1.027 0-1.413s1.027-.387 1.413 0l3.067 3.067 6.853-6.853c.387-.387 1.027-.387 1.413 0s.387 1.027 0 1.413l-7.56 7.56a1 1 0 0 1-.707.293z"/></svg>