<svg xmlns="http://www.w3.org/2000/svg" width="48" height="48" fill="#e6eaee" xmlns:v="https://vecta.io/nano"><path d="M34 41.5H14C5.18 41.5 2.5 38.82 2.5 30v-1A1.51 1.51 0 0 1 4 27.5 3.52 3.52 0 0 0 7.5 24 3.52 3.52 0 0 0 4 20.5 1.51 1.51 0 0 1 2.5 19v-1C2.5 9.18 5.18 6.5 14 6.5h20c8.82 0 11.5 2.68 11.5 11.5v2a1.51 1.51 0 0 1-1.5 1.5 3.52 3.52 0 0 0-3.5 3.5 3.52 3.52 0 0 0 3.5 3.5 1.51 1.51 0 0 1 1.5 1.5c0 8.82-2.68 11.5-11.5 11.5zM5.5 30.32c.04 6.88 1.46 8.18 8.5 8.18h20c6.68 0 8.3-1.18 8.48-7.18A6.5 6.5 0 0 1 37.5 25c0-3.06 2.14-5.64 5-6.32V18c0-7.14-1.34-8.5-8.5-8.5H14c-7.04 0-8.46 1.3-8.5 8.18 2.86.68 5 3.26 5 6.32s-2.14 5.64-5 6.32z"/><path d="M20 14.5a1.51 1.51 0 0 1-1.5-1.5V8A1.51 1.51 0 0 1 20 6.5 1.51 1.51 0 0 1 21.5 8v5a1.51 1.51 0 0 1-1.5 1.5zm0 14.66a1.51 1.51 0 0 1-1.5-1.5v-7.34a1.51 1.51 0 0 1 1.5-1.5 1.51 1.51 0 0 1 1.5 1.5v7.34a1.5 1.5 0 0 1-1.5 1.5zm0 12.34a1.51 1.51 0 0 1-1.5-1.5v-5a1.51 1.51 0 0 1 1.5-1.5 1.51 1.51 0 0 1 1.5 1.5v5a1.51 1.51 0 0 1-1.5 1.5z"/></svg>